<?xml version="1.0" encoding="utf-8"?>
<!-- Generator: Adobe Illustrator 21.0.0, SVG Export Plug-In . SVG Version: 6.00 Build 0)  -->
<svg version="1.1" id="Ebene_1" xmlns="http://www.w3.org/2000/svg" xmlns:xlink="http://www.w3.org/1999/xlink" x="0px" y="0px"
	 viewBox="0 0 245.1 248" style="enable-background:new 0 0 245.1 248;" xml:space="preserve">
<style type="text/css">
	.st0{fill:#FFFFFF;}
</style>
<path class="st0" d="M112.5,48.6c1.9,3.1,4,6,5.7,9.2c1.8,3.3,1.5,6.5-1,9.4c-0.5,0.5-0.9,1.1-1.2,1.7c-0.6,1.5,0.4,3,2.5,3.1
	c0.8-0.3,2.2-0.6,3.1-1.4c2.3-2.2,4.9-4.5,6.5-7.2c3.2-5.4,1.6-10.7-1.5-15.6c-3.1-4.9-6.5-9.6-9.7-14.4c-3.3-4.8-3-9.6,0.3-14.2
	c0.8-1.1,1.5-2.3,2-3.6c0.3-0.6,0.1-1.6-0.3-2s-1.5-0.6-2-0.4c-1.8,0.9-3.6,1.8-5,3.2c-8.3,8.1-9.5,14.3-4.9,23.4
	C108.7,42.8,110.7,45.7,112.5,48.6z"/>
<path class="st0" d="M82.4,54c3.1,4.7,5,9.4,0.3,14.3c-0.1,0.1-0.3,0.4-0.4,0.7c-0.6,1.5,0.5,3,2.6,3c0.8-0.4,2-0.8,3.2-1.4
	c7.4-4.3,10.1-12.9,6.1-20.6c-1.7-3.3-4-6.3-6-9.4c-2.1-3.3-4.4-6.6-6.4-10c-1.4-2.4-1.3-5.2-0.1-7.7c0.7-1.7,1.8-3.2,2.7-4.7
	c0.8-1.4,2.6-3.1,0.9-4.5c-0.8-0.6-3.4,0-4.5,0.9c-10.4,8.1-12.4,15.9-6.9,25.9C76.3,45.2,79.4,49.5,82.4,54z"/>
<path class="st0" d="M151.1,55.7c2.6,4.1,3.1,8.2-0.4,12.1c-0.6,0.7-0.9,2.5-0.4,3.1s2.2,0.9,3.1,0.6c5.4-1.5,10-8,10.2-13.7
	c0.1-4.7-2-8.5-4.5-12.2c-2.7-4.1-5.7-8.2-8.5-12.4c-3.1-4.6-2.8-9.2,0.3-13.7c0.8-1.2,1.7-2.4,2.2-3.8c0.6-1.4,0-2.6-1.7-2.8
	c-0.8,0.3-1.7,0.5-2.3,1c-9.1,6.6-14.2,14.8-8.2,25.8C144,45.3,147.8,50.4,151.1,55.7z"/>
<path class="st0" d="M218.3,116.5c-0.5-2.2-1.4-4.5-2.6-6.5c-1.9-3.2-4.7-5-8.7-4.9c-0.3,0-0.5,0-0.8,0c0-1,0-1.7,0-2.4
	c-0.1-2.9,0.1-5.7-0.3-8.6c-0.8-6.5-6.6-10.8-12.6-10.9c-2.3-0.1-4.7,0.5-6.9,1.9c-4.3,2.7-6.2,6.7-6.2,11.8c0,5,0,9.9,0,14.9h-3.6
	c0-4.7,0-9.5,0-14.3c0-1.1-0.1-2.2-0.2-3.2c-0.9-6.6-7-11-13.1-10.8c-2,0-4.1,0.6-6,1.7c-4.7,2.8-6.5,7-6.5,12.4c0,4.7,0,9.5,0,14.3
	h-3.6c0-4.6,0-9.2,0-13.9l0,0c0-0.4,0-0.7,0-1.1c-0.3-5.8-2.8-10.2-8.3-12.3c-5-1.9-9.7-1-13.7,2.7c-1.3,1.2-2.2,2.6-2.8,4
	c-0.9,2-1.2,4.2-1.1,6.5l0,0l0,0c0,4.6,0,9.3,0,13.9h-3.6c0-4.5,0-9,0-13.5c0-1.3,0-2.5-0.3-3.7c-0.1-0.6-0.3-1.2-0.5-1.8
	c-1.3-4-3.9-6.9-8-8.3c-4.9-1.6-9.3-0.7-13.2,2.9c-2.5,2.3-3.6,5.2-3.9,8.3c-0.1,0.7-0.1,1.5-0.1,2.2c0,4.6,0,9.2,0,13.8H88
	c0-4.6,0-9.2,0-13.8c0-1-0.1-1.9-0.2-2.9c-0.6-5.1-5-9.9-10.1-10.9c-5.5-1.1-11.1,1.5-13.8,6.1c-1.5,2.6-1.8,5.3-1.8,8.1
	c0,4.5,0,8.9,0,13.3h-3.7c0-4.3,0-8.6,0-12.8c0-1,0-1.9-0.1-2.9c-0.5-5.1-3.1-8.8-7.8-10.9c-4.5-2-8.8-1.3-12.7,1.5
	s-5.2,6.8-5.2,11.4c0,13.9,0,27.9,0,41.9c0,27.3,0,54.5,0,81.7l0,0c0,1,0,2.1,0.2,3.2c0.1,0.6,0.2,1.2,0.4,1.8c0,0.1,0,0.2,0.1,0.3
	l0,0c1.2,3.7,4,6.5,7.5,7.9c2.6,1,5.5,1.3,8.3,0.4c6.1-1.9,9.4-6.7,9.4-13.5l0,0c0-0.2,0-0.3,0-0.5l0,0c0-2.9,0.1-5.7,0-8.6h3.6
	c0,3.1,0,6.1,0,9.2l0,0c0,1,0,2,0.2,3.1c0.1,0.6,0.2,1.2,0.4,1.8c0,0.1,0,0.2,0.1,0.3l0,0c1.2,3.7,4,6.5,7.5,7.9
	c2.6,1,5.5,1.3,8.3,0.4c6.1-1.9,9.4-6.7,9.4-13.5l0,0c0-2.9,0-5.9,0-8.8l0,0c0-0.1,0-0.2,0-0.3h3.6c0,2.7,0,5.5,0,8.2
	c0,1.1,0,2.3,0.1,3.4c0.1,1,0.3,1.9,0.6,2.8c0.1,0.4,0.3,0.9,0.5,1.3c0.1,0.2,0.2,0.4,0.3,0.6c0.3,0.6,0.7,1.2,1.1,1.7
	c0.3,0.4,0.6,0.7,0.9,1s0.6,0.6,1,0.9c0.4,0.3,0.7,0.6,1.1,0.8c0.6,0.4,1.2,0.7,1.8,1c2.7,1.3,5.8,1.7,8.8,0.7
	c6.4-2,9.6-6.7,9.6-13.9c0-2.9,0-5.8,0-8.7h3.6c0,2.8,0,5.6,0,8.3l0,0c0,1.2,0,2.4,0.2,3.6c0.1,0.6,0.2,1.2,0.4,1.8
	c0,0.1,0,0.2,0.1,0.3l0,0c1.2,3.7,4,6.5,7.5,7.9c2.6,1,5.5,1.3,8.3,0.4c6.1-1.9,9.4-6.7,9.4-13.5l0,0c0-2.9,0-5.9,0-8.8h3.6
	c0,2.8,0,5.5,0,8.3c0,1.1,0.1,2.2,0.2,3.2c0.7,6.3,6.3,11.1,12.5,11.1c0.6,0,1.3,0,2-0.1c7-1.1,11.2-6.2,11.2-13.8
	c0-2.9,0-5.8,0-8.7h3.7c0,2.9,0,5.8,0,8.7c0,1,0,2,0.2,3.1c0.9,6.4,6.8,10.7,12.9,10.7c2,0,4.1-0.5,6-1.5c5-2.8,6.9-7.2,6.9-12.7
	c0-26.8,0-53.5,0-80.3c0-0.8,0-1.5,0-2.5c0.2,0,0.3,0,0.5,0c5.2,0.3,8.1-2.7,10.1-7C219.1,126.5,219.4,121.5,218.3,116.5z
	 M62.4,198.4c0,2.6,0,5.1,0,7.7h-3.6c-0.1-29.2,0-58.4,0-87.6h3.7C62.4,145.1,62.4,171.7,62.4,198.4z M91.9,159.6
	c0,15.4,0,30.9,0,46.4h-3.6c0-29.2,0-58.4,0-87.6H92C91.9,132.2,91.9,145.9,91.9,159.6z M121.4,128.8c0,10.3,0,20.6,0,30.9
	c0,15.5,0,30.9,0,46.4h-3.6c0-29.2,0-58.4,0-87.6h3.6C121.4,121.9,121.4,125.3,121.4,128.8z M150.9,159c0,15.7,0,31.4,0,47.1h-3.6
	c0-29.2,0-58.4,0-87.6h3.6C150.9,132,150.9,145.5,150.9,159z M176.8,206.1c0-29.2,0-58.4,0-87.6h3.6c0,29.2,0,58.4,0,87.6H176.8z"/>
</svg>
