<?xml version="1.0" encoding="utf-8"?>
<!-- Generator: Adobe Illustrator 21.0.0, SVG Export Plug-In . SVG Version: 6.00 Build 0)  -->
<svg version="1.1" id="Ebene_1" xmlns="http://www.w3.org/2000/svg" xmlns:xlink="http://www.w3.org/1999/xlink" x="0px" y="0px"
	 viewBox="0 0 245.1 248" style="enable-background:new 0 0 245.1 248;" xml:space="preserve">
<style type="text/css">
	.st0{fill:#FFFFFF;}
</style>
<g>
	<path class="st0" d="M176,40.6c-16.8,0-30.5,13.6-30.5,30.4c0,16.9,13.5,30.4,30.5,30.5c16.5,0,30.3-13.7,30.3-30.2
		C206.4,54.2,192.9,40.6,176,40.6z M172.1,23.3L172.1,23.3c0,3.1,0,6.2,0,9.3c0,1.7,0.5,3,2.2,3.8c2.8,1.2,5.4-0.5,5.4-3.8
		c0.1-6.1,0-12.1,0-18.2c0-2.7-1.4-4.2-3.7-4.3c-2.4,0-3.8,1.5-3.9,4.3C172.1,17.3,172.1,20.3,172.1,23.3z M128.2,74.8
		c3,0,6.1,0,9.1,0c2.8,0,4.3-1.4,4.3-3.7c0-2.4-1.5-3.9-4.3-3.9c-6,0-12,0-18,0c-2.7,0-4.3,1.4-4.3,3.7c-0.1,2.4,1.5,3.9,4.3,3.9
		C122.2,74.8,125.2,74.8,128.2,74.8z M223.5,67.2L223.5,67.2c-3.2,0-6.3-0.1-9.5,0c-2.3,0.1-3.7,1.5-3.7,3.7s1.3,3.8,3.6,3.8
		c6.5,0.1,13,0.1,19.5,0c1.7,0,2.9-0.9,3.4-2.6c0.7-2.7-0.8-4.8-3.8-4.9C229.8,67.1,226.6,67.2,223.5,67.2z M179.7,118.7
		L179.7,118.7c0-3.2,0.1-6.4,0-9.6c-0.1-2.3-1.5-3.7-3.7-3.7s-3.8,1.3-3.8,3.6c-0.1,6.4-0.1,12.9,0,19.3c0,1.7,0.9,3.1,2.7,3.5
		c2.7,0.7,4.8-0.9,4.9-3.9C179.8,124.8,179.7,121.8,179.7,118.7z M142.1,55.7c2.4,0,4.2-1.1,4.6-2.5c0.6-1.8-0.2-3.7-1.9-4.7
		c-3.1-1.8-6.1-3.6-9.3-5.3c-2.2-1.2-4.6-0.6-5.8,1.3c-1.1,2-0.4,4.3,1.8,5.6c2.9,1.7,5.7,3.4,8.6,5C141,55.4,141.8,55.6,142.1,55.7
		z M147.2,28c0,0.3,0,0.7,0.2,1c2.1,3.8,4.2,7.6,6.5,11.2c1.1,1.7,3.5,1.9,5,0.9c1.5-0.9,2.4-2.9,1.6-4.5c-2-3.8-4.2-7.6-6.5-11.2
		c-0.9-1.4-2.5-1.8-4.1-1.2C148.2,24.9,147.3,26.1,147.2,28z M195.7,100.3c-3.5,0-5.6,2.9-4.3,5.3c1.9,3.6,3.9,7.1,6,10.5
		c1.1,1.8,3.8,2.3,5.4,1.2c1.8-1.1,2.3-3.3,1.2-5.3c-1.8-3.2-3.7-6.4-5.5-9.6C197.7,101.1,196.6,100.3,195.7,100.3z M209.5,55.7
		c0.3-0.1,1-0.2,1.6-0.5c3.3-1.8,6.5-3.7,9.7-5.6c2-1.2,2.5-3.2,1.6-5.1c-0.9-1.8-3.1-2.9-4.8-1.9c-3.8,2-7.5,4.2-11.1,6.4
		c-1.4,0.9-1.8,2.5-1.2,4.1C206,54.8,207.3,55.7,209.5,55.7z M142.3,86.3c-0.2,0.1-0.9,0.1-1.5,0.4c-3.4,1.9-6.8,3.8-10.2,5.9
		c-1.8,1.1-2.2,3.2-1.3,4.9c0.9,1.7,3.4,2.7,5.1,1.8c3.6-1.9,7.2-4,10.6-6.2c1.5-0.9,2-2.6,1.4-4.2
		C145.9,87.2,144.6,86.3,142.3,86.3z M218,99.6c2.3,0,3.9-1.1,4.4-2.6c0.5-1.7-0.1-3.5-1.7-4.5c-3.2-1.9-6.4-3.8-9.7-5.6
		c-2-1.1-4.6-0.5-5.5,1.2c-1.1,1.9-0.3,4.4,1.8,5.6c3,1.7,5.9,3.5,8.9,5.1C216.9,99.2,217.7,99.4,218,99.6z M191.2,37.2
		c0,2.4,1,3.8,2.5,4.3c1.7,0.5,3.7-0.2,4.7-2c1.8-3.1,3.6-6.1,5.3-9.3c1.2-2.1,0.6-4.7-1.2-5.7c-2-1.1-4.3-0.3-5.6,1.9
		c-1.7,2.9-3.4,5.8-5.1,8.8C191.6,36,191.4,36.9,191.2,37.2z M151.3,118.2c1-0.6,2.4-1,3-1.9c2.2-3.4,4.2-6.9,6.1-10.5
		c0.9-1.7,0.1-4-1.4-4.9c-1.6-0.9-4-0.7-5,0.9c-2.2,3.6-4.4,7.2-6.3,11C146.4,115.2,148.4,117.8,151.3,118.2z"/>
	<path class="st0" d="M176,40.6c16.9,0,30.4,13.6,30.4,30.7c0,16.5-13.8,30.2-30.3,30.2c-17,0-30.6-13.6-30.5-30.5
		C145.5,54.1,159.2,40.5,176,40.6z M198.8,71.1c0.1-12.5-10.2-22.9-22.7-23c-12.6,0-23,10.2-23,22.6c-0.1,12.7,10.2,23.1,22.7,23.1
		C188.4,93.9,198.8,83.7,198.8,71.1z"/>
	<path class="st0" d="M172.1,23.3c0-3,0-6,0-8.9c0-2.8,1.5-4.4,3.9-4.3c2.4,0,3.7,1.6,3.7,4.3c0,6.1,0,12.1,0,18.2
		c0,3.3-2.6,5-5.4,3.8c-1.7-0.7-2.2-2.1-2.2-3.8C172.1,29.5,172.1,26.4,172.1,23.3L172.1,23.3z"/>
	<path class="st0" d="M128.2,74.8c-3,0-6,0-8.9,0c-2.8,0-4.4-1.5-4.3-3.9c0.1-2.3,1.6-3.7,4.3-3.7c6,0,12,0,18,0
		c2.8,0,4.3,1.4,4.3,3.9c0,2.3-1.5,3.7-4.3,3.7C134.3,74.8,131.2,74.8,128.2,74.8z"/>
	<path class="st0" d="M223.5,67.2c3.2,0,6.3-0.1,9.5,0c3,0.1,4.5,2.2,3.8,4.9c-0.5,1.8-1.7,2.6-3.4,2.6c-6.5,0.1-13,0.1-19.5,0
		c-2.3,0-3.6-1.6-3.6-3.8s1.4-3.6,3.7-3.7C217.1,67.1,220.3,67.2,223.5,67.2L223.5,67.2z"/>
	<path class="st0" d="M179.7,118.7c0,3.1,0.1,6.2,0,9.3c-0.1,3-2.1,4.5-4.9,3.9c-1.8-0.5-2.7-1.8-2.7-3.5c-0.1-6.4-0.1-12.9,0-19.3
		c0-2.3,1.6-3.7,3.8-3.6c2.2,0,3.7,1.3,3.7,3.7C179.8,112.2,179.7,115.4,179.7,118.7L179.7,118.7z"/>
	<path class="st0" d="M142.1,55.7c-0.3-0.1-1.1-0.3-1.8-0.7c-2.9-1.6-5.8-3.3-8.6-5c-2.2-1.3-3-3.6-1.8-5.6c1.1-2,3.5-2.6,5.8-1.3
		c3.1,1.7,6.2,3.5,9.3,5.3c1.8,1.1,2.5,2.9,1.9,4.7C146.3,54.6,144.5,55.7,142.1,55.7z"/>
	<path class="st0" d="M147.2,28c0.1-1.9,1-3.1,2.6-3.7s3.3-0.3,4.1,1.2c2.3,3.7,4.5,7.4,6.5,11.2c0.8,1.5-0.1,3.5-1.6,4.5
		c-1.5,0.9-3.9,0.7-5-0.9c-2.3-3.6-4.4-7.5-6.5-11.2C147.2,28.7,147.3,28.3,147.2,28z"/>
	<path class="st0" d="M195.7,100.3c0.9,0,2,0.8,2.7,2.2c1.8,3.2,3.7,6.4,5.5,9.6c1.1,2,0.6,4.2-1.2,5.3c-1.6,1-4.3,0.6-5.4-1.2
		c-2.1-3.4-4.2-6.9-6-10.5C190.1,103.2,192.3,100.2,195.7,100.3z"/>
	<path class="st0" d="M209.5,55.7c-2.2,0-3.5-0.9-4.1-2.5s-0.2-3.2,1.2-4.1c3.6-2.3,7.3-4.4,11.1-6.4c1.7-0.9,3.9,0.1,4.8,1.9
		c0.9,1.8,0.4,3.9-1.6,5.1c-3.2,1.9-6.5,3.8-9.7,5.6C210.6,55.5,209.8,55.6,209.5,55.7z"/>
	<path class="st0" d="M142.3,86.3c2.2,0,3.5,0.9,4.1,2.5c0.6,1.7,0.1,3.3-1.4,4.2c-3.5,2.2-7,4.2-10.6,6.2c-1.7,0.9-4.2-0.1-5.1-1.8
		s-0.4-3.8,1.3-4.9c3.3-2.1,6.8-4,10.2-5.9C141.4,86.4,142.1,86.4,142.3,86.3z"/>
	<path class="st0" d="M218,99.6c-0.3-0.1-1.1-0.3-1.8-0.7c-3-1.7-6-3.4-8.9-5.1c-2.2-1.3-2.9-3.7-1.8-5.6c1-1.7,3.5-2.3,5.5-1.2
		c3.3,1.8,6.5,3.7,9.7,5.6c1.7,1,2.3,2.8,1.7,4.5C221.9,98.5,220.2,99.6,218,99.6z"/>
	<path class="st0" d="M191.2,37.2c0.1-0.3,0.3-1.2,0.7-2c1.6-3,3.3-5.9,5.1-8.8c1.3-2.2,3.6-3,5.6-1.9c1.8,1,2.4,3.5,1.2,5.7
		c-1.7,3.1-3.5,6.2-5.3,9.3c-1,1.7-3,2.5-4.7,2C192.2,41,191.3,39.6,191.2,37.2z"/>
	<path class="st0" d="M151.3,118.2c-2.9-0.4-4.8-3-3.6-5.5c1.8-3.8,4-7.4,6.3-11c1-1.6,3.4-1.8,5-0.9c1.5,0.9,2.3,3.2,1.4,4.9
		c-1.9,3.6-3.9,7.1-6.1,10.5C153.7,117.2,152.3,117.6,151.3,118.2z"/>
	<path class="st0" d="M198.8,71.1c-0.1,12.6-10.4,22.9-23.1,22.8c-12.6,0-22.8-10.4-22.7-23.1c0.1-12.5,10.5-22.7,23-22.6
		C188.6,48.1,198.9,58.5,198.8,71.1z"/>
</g>
<g>
	<path class="st0" d="M60.9,223.3c-0.9-12.8-1.4-24.7-2.9-36.5c-0.4-2.8-4.1-6.7-6.8-7.3c-10.5-2.3-21.3-3.4-31.8-4.9
		c0,14.6-0.1,28.4,0.1,42.3c0,1.1,1.9,3.1,3,3.2C34.9,221.4,47.3,222.3,60.9,223.3z M18.3,130.8c0,13.3-0.1,25.6,0.2,37.8
		c0,1.3,2.3,3.5,3.8,3.7c9.1,1.6,18.3,2.8,27.5,4c4.8,0.6,7.8-2.3,7.6-7.1c-0.4-7.7-0.4-15.4-1.8-22.9c-0.6-3.3-3.6-8-6.4-8.8
		C39.1,134.6,28.7,133,18.3,130.8z M99.8,226.3c-1.4-12.2-2.2-23.4-4.2-34.4c-0.5-2.9-4.4-6.4-7.4-7.3c-6.4-1.8-13.3-2.3-20-3
		c-4.2-0.5-7.3,2.3-7.1,6.5c0.5,10.7,1.1,21.4,2,32c0.1,1.2,1.8,3.2,2.9,3.3C76.9,224.6,87.8,225.3,99.8,226.3z M17.5,91
		c0,12.1-0.1,23.6,0.1,35.2c0,1,1.8,2.5,3.1,2.8c8.8,2,17.7,3.8,26.6,5.5c4.7,0.9,7.7-1.7,7.5-6.3c-0.5-8.2-1.1-16.3-1.8-24.5
		c-0.1-1.3-1.2-3.3-2.2-3.6C39.7,96.9,28.5,94,17.5,91z M58.7,157.3c0.1,0,0.1,0,0.2,0c0.2,4.3,0.3,8.5,0.7,12.8
		c0.5,4.9,3.1,8.2,8.2,9c6.7,1,13.4,2,20.1,2.8c4.3,0.5,6.9-1.8,6.5-6.1c-0.7-7.8-1.1-15.7-2.9-23.3c-0.7-3.1-4.2-6.8-7.2-7.9
		c-6.1-2.3-12.8-3.1-19.2-4.3c-4.2-0.8-6.9,1.5-6.9,5.7C58.2,149.9,58.5,153.6,58.7,157.3z M134.2,228.9
		c-1.8-12.6-3.3-24.2-5.3-35.8c-0.2-1.3-2.4-3-3.8-3.2c-6.6-1.2-13.4-2.1-20.1-3c-4.1-0.5-7,2-6.7,6.1c0.9,10.1,2,20.2,3.2,30.3
		c0.1,1.2,1.6,3.1,2.6,3.2C113.8,227.4,123.6,228.1,134.2,228.9z M55.1,100.9c0.7,10.7,0.9,20.3,2.2,29.8c0.4,2.6,3.7,6,6.4,6.9
		c6.6,2.2,13.5,3.2,20.3,4.5c4.1,0.8,6.6-1.5,6.2-5.6c-0.7-8-1.6-16-2.6-23.9c-0.2-1.4-1.6-3.4-2.8-3.8
		C75.3,106.1,65.7,103.7,55.1,100.9z M128.6,187.9c-1.7-11.6-3.1-22.2-4.9-32.7c-0.2-1.3-2.2-3-3.7-3.4c-6.4-1.6-12.9-2.8-19.3-4.1
		c-4.4-0.9-7,1.3-6.6,5.7c0.7,7.6,1.1,15.3,2.6,22.8c0.6,2.9,3.6,6.9,6.2,7.5C110.9,185.8,119.3,186.5,128.6,187.9z M89.4,109.7
		c1.1,10.3,2,19.9,3.4,29.3c0.3,2.1,2.7,4.9,4.7,5.4c8.3,2.3,16.8,3.9,25.9,5.9c-1.6-10.9-3-20.6-4.5-30.2c-0.2-1.2-1.3-2.8-2.3-3.1
		C107.9,114.6,99.1,112.3,89.4,109.7z M134.4,235.3c0-0.5,0.1-0.9,0.1-1.4c-1.4-0.2-2.7-0.5-4.1-0.6c-36.5-2.6-72.9-5.2-109.4-7.5
		c-5.2-0.3-6.9-1.5-7-7c-0.5-41.7-1.3-83.5-2.1-125.2c0-2,0-4,0-6.1c-0.6-0.1-1.3-0.2-1.9-0.2c-0.7,2.2-1.9,4.4-1.9,6.5
		c0.3,43.3,0.8,86.7,1.1,130c0,3.5,1.4,4.5,4.7,4.7c38.5,2.3,76.9,4.7,115.4,7.1C131,235.8,132.7,235.4,134.4,235.3z M86.6,240.6
		c0-0.7,0-1.3,0-2c-8.9,0-17.8,0-26.7,0c0,0.7,0,1.3,0,2C68.8,240.6,77.7,240.6,86.6,240.6z"/>
	<path class="st0" d="M60.9,223.3c-13.6-1.1-26-2-38.4-3.1c-1.1-0.1-3-2.1-3-3.2c-0.2-13.9-0.1-27.7-0.1-42.3
		c10.5,1.5,21.3,2.7,31.8,4.9c2.8,0.6,6.5,4.5,6.8,7.3C59.5,198.6,60,210.6,60.9,223.3z"/>
	<path class="st0" d="M18.3,130.8c10.4,2.1,20.8,3.7,30.8,6.7c2.9,0.9,5.8,5.5,6.4,8.8c1.4,7.5,1.4,15.2,1.8,22.9
		c0.3,4.8-2.8,7.7-7.6,7.1c-9.2-1.2-18.4-2.4-27.5-4c-1.5-0.3-3.7-2.4-3.8-3.7C18.2,156.4,18.3,144.1,18.3,130.8z"/>
	<path class="st0" d="M99.8,226.3c-11.9-0.9-22.9-1.7-33.9-2.8c-1.1-0.1-2.8-2.1-2.9-3.3c-0.9-10.7-1.5-21.3-2-32
		c-0.2-4.2,2.9-7,7.1-6.5c6.7,0.8,13.6,1.2,20,3c3,0.9,6.9,4.4,7.4,7.3C97.6,202.9,98.4,214.1,99.8,226.3z"/>
	<path class="st0" d="M17.5,91c11.1,2.9,22.2,5.8,33.3,9c1,0.3,2.1,2.3,2.2,3.6c0.8,8.1,1.4,16.3,1.8,24.5c0.3,4.7-2.7,7.2-7.5,6.3
		c-8.9-1.7-17.8-3.5-26.6-5.5c-1.2-0.3-3-1.8-3.1-2.8C17.4,114.7,17.5,103.2,17.5,91z"/>
	<path class="st0" d="M58.7,157.3c-0.2-3.7-0.5-7.5-0.5-11.2c0-4.3,2.6-6.5,6.9-5.7c6.5,1.2,13.1,2,19.2,4.3
		c3.1,1.1,6.5,4.8,7.2,7.9c1.8,7.6,2.2,15.5,2.9,23.3c0.4,4.2-2.3,6.6-6.5,6.1c-6.7-0.8-13.4-1.8-20.1-2.8c-5.1-0.8-7.7-4.1-8.2-9
		c-0.4-4.2-0.5-8.5-0.7-12.8C58.8,157.3,58.8,157.3,58.7,157.3z"/>
	<path class="st0" d="M134.2,228.9c-10.7-0.8-20.4-1.5-30.1-2.4c-1-0.1-2.4-2-2.6-3.2c-1.2-10.1-2.3-20.2-3.2-30.3
		c-0.4-4.1,2.6-6.6,6.7-6.1c6.7,0.8,13.4,1.7,20.1,3c1.5,0.3,3.6,1.9,3.8,3.2C130.9,204.7,132.4,216.3,134.2,228.9z"/>
	<path class="st0" d="M55.1,100.9c10.5,2.8,20.2,5.2,29.7,7.9c1.2,0.4,2.6,2.4,2.8,3.8c1.1,7.9,1.9,15.9,2.6,23.9
		c0.4,4.1-2.2,6.3-6.2,5.6c-6.8-1.3-13.8-2.3-20.3-4.5c-2.7-0.9-6-4.3-6.4-6.9C56,121.2,55.8,111.6,55.1,100.9z"/>
	<path class="st0" d="M128.6,187.9c-9.3-1.4-17.7-2-25.7-4.1c-2.6-0.7-5.6-4.6-6.2-7.5c-1.5-7.5-1.9-15.2-2.6-22.8
		c-0.4-4.4,2.2-6.6,6.6-5.7c6.5,1.3,12.9,2.5,19.3,4.1c1.5,0.4,3.5,2.1,3.7,3.4C125.5,165.7,126.9,176.3,128.6,187.9z"/>
	<path class="st0" d="M89.4,109.7c9.7,2.6,18.5,4.8,27.2,7.3c1,0.3,2.1,1.9,2.3,3.1c1.6,9.6,2.9,19.3,4.5,30.2
		c-9.2-2-17.6-3.6-25.9-5.9c-2-0.5-4.3-3.4-4.7-5.4C91.3,129.6,90.5,120.1,89.4,109.7z"/>
	<path class="st0" d="M134.4,235.3c-1.7,0.1-3.4,0.5-5.1,0.4c-38.5-2.3-76.9-4.8-115.4-7.1c-3.3-0.2-4.7-1.1-4.7-4.7
		c-0.3-43.3-0.8-86.7-1.1-130c0-2.2,1.2-4.4,1.9-6.5c0.6,0.1,1.3,0.2,1.9,0.2c0,2,0,4.1,0,6.1c0.7,41.7,1.6,83.5,2.1,125.2
		c0.1,5.5,1.8,6.7,7,7c36.5,2.3,73,5,109.4,7.5c1.4,0.1,2.7,0.4,4.1,0.6C134.5,234.4,134.5,234.8,134.4,235.3z"/>
	<path class="st0" d="M86.6,240.6c-8.9,0-17.8,0-26.7,0c0-0.7,0-1.3,0-2c8.9,0,17.8,0,26.7,0C86.5,239.3,86.6,240,86.6,240.6z"/>
</g>
</svg>
