<svg id="Ebene_1" data-name="Ebene 1" xmlns="http://www.w3.org/2000/svg" viewBox="0 0 205.17 68.75"><defs><style>.cls-1{fill:#e20000;}.cls-2{fill:#fff;}</style></defs><path class="cls-1" d="M292.19,423.39v5.2A21,21,0,0,0,310.94,410h-5.2a15.84,15.84,0,0,1-13.55,13.42M274.4,410h-5.2A21,21,0,0,0,288,428.6v-5.2A15.84,15.84,0,0,1,274.4,410M288,386.81a21,21,0,0,0-18.82,19h5.19A15.84,15.84,0,0,1,288,392Zm23,19a21,21,0,0,0-18.79-19V392a15.84,15.84,0,0,1,13.6,13.76Z" transform="translate(-194.1 -386.81)"/><path class="cls-2" d="M238.92,443.09q-.88,0-.88-1.93a3.71,3.71,0,0,1,.24-1.47q.24-.54.64-.54h8.61v-3.72h-8.61a6.15,6.15,0,0,0-2,.3,3.27,3.27,0,0,0-1.44,1,4.43,4.43,0,0,0-.87,1.77,10.59,10.59,0,0,0-.29,2.67v.43a5.81,5.81,0,0,0,1.13,4,4.49,4.49,0,0,0,3.49,1.24h4.37q.88,0,.88,2.06v.68a5.1,5.1,0,0,1-.23,1.68q-.23.63-.65.63h-9v3.72h9a6.15,6.15,0,0,0,2-.3,3.27,3.27,0,0,0,1.44-1,4.43,4.43,0,0,0,.87-1.77,10.59,10.59,0,0,0,.29-2.67v-1.53a5.82,5.82,0,0,0-1.13-4,4.49,4.49,0,0,0-3.49-1.24Zm-11.23,12.48h3.74V435.43h-3.74Zm-13.62-11.3v-5.12h5.42q1.48,0,1.48,1.91v1.26q0,2-1.48,2Zm-3.74-8.84v20.14h3.74v-8h2.59l3.82,8h4.24l-4.29-8a4.31,4.31,0,0,0,3.13-1.44,5.4,5.4,0,0,0,1-3.45v-1.91q0-5.3-4.7-5.3Zm-12.48,0H194.1v20.14h3.74V447h1.86l4.8,8.59h4.22l-6.08-10.85,5.45-9.29H204l-4.52,8.08h-1.61Z" transform="translate(-194.1 -386.81)"/><path class="cls-1" d="M298.09,407.42c-1.26-5.52-5.55-10.46-9.56-13,.33,1,2,3.13-1.27,8.71-1.63,2.8-4.64,5.85-4.9,9.92-.21,3.16,2.18,4.62,3.82,3,1.95-2,1.64-8.53,4.49-8.81a1.79,1.79,0,0,1,2.12,1.35,3.05,3.05,0,0,1,1.19.19,2,2,0,0,1,.67.92,1.51,1.51,0,0,0-.87-.26c-.45,0-.95,0-1.09.58a4.41,4.41,0,0,0,.71,3.63,5.7,5.7,0,0,1,1.71,3.93c1.71-.65,4.24-4.62,3-10.14" transform="translate(-194.1 -386.81)"/><path class="cls-1" d="M365.91,435.1v13.82q0,6.52,6.42,6.52h7.79v-3.75h-7.84q-2.59,0-2.59-2.76v-2.16H380v-3.5H369.69v-4.41h10.37V435.1ZM355.6,447.47H359v4.21h-5a1.69,1.69,0,0,1-1.23-.48A3.56,3.56,0,0,1,352,450a6.88,6.88,0,0,1-.43-1.67,13.43,13.43,0,0,1-.13-1.84V444a13.19,13.19,0,0,1,.13-1.83,6.68,6.68,0,0,1,.43-1.65,3.32,3.32,0,0,1,.8-1.19,1.74,1.74,0,0,1,1.23-.46h8.7V435.1h-8.8a4.68,4.68,0,0,0-2.85.85,6.65,6.65,0,0,0-1.88,2.14,9.79,9.79,0,0,0-1,2.86,15.3,15.3,0,0,0-.32,3v2.51a15,15,0,0,0,.33,3.06,10.21,10.21,0,0,0,1.05,2.89,6.55,6.55,0,0,0,1.89,2.15,4.65,4.65,0,0,0,2.81.85h8.85V444H355.6Zm-29.71,8V435.1h-3.78v16.58h-6.75a.78.78,0,0,1-.89-.89V435.1h-3.78v15.7q0,4.64,4.67,4.64Zm-31.24-16.58h8.85l-9,14.48v2.1H308.2v-3.75h-8.75l8.72-14V435.1H294.66Zm-6.46,16.58H292V435.1H288.2ZM271.31,435.1v13.82q0,6.52,6.42,6.52h7.79v-3.75h-7.84q-2.59,0-2.59-2.76v-2.16h10.27v-3.5H275.09v-4.41h10.37V435.1Zm-7.11,20.34H268V435.1H264.2v8.17h-8V435.1h-3.78v20.34h3.78v-8.67h8Z" transform="translate(-194.1 -386.81)"/><path class="cls-1" d="M329.6,435.1v20.34h3.78V438.85h6.75a.78.78,0,0,1,.89.89v15.7h3.78v-15.7q0-4.64-4.67-4.64Z" transform="translate(-194.1 -386.81)"/><path class="cls-1" d="M384.07,435.1v20.34h3.78V438.85h6.75a.78.78,0,0,1,.89.89v15.7h3.78v-15.7q0-4.64-4.67-4.64Z" transform="translate(-194.1 -386.81)"/></svg>