<?xml version="1.0" encoding="utf-8"?>
<!-- Generator: Adobe Illustrator 21.0.0, SVG Export Plug-In . SVG Version: 6.00 Build 0)  -->
<svg version="1.1" id="Ebene_1" xmlns="http://www.w3.org/2000/svg" xmlns:xlink="http://www.w3.org/1999/xlink" x="0px" y="0px"
	 viewBox="0 0 245.1 248" style="enable-background:new 0 0 245.1 248;" xml:space="preserve">
<style type="text/css">
	.st0{fill:#FFFFFF;}
</style>
<g>
	<path class="st0" d="M115.1,67.9c2.9,4.6,6.1,9.1,8.8,13.9c2.7,5,2.3,9.8-1.4,14.3c-0.7,0.7-1.4,1.6-1.8,2.7
		c-0.9,2.3,0.5,4.5,3.8,4.6c1.3-0.5,3.4-0.9,4.6-2.1c3.6-3.4,7.3-6.8,9.8-10.9c4.8-8,2.5-16.3-2.3-23.6c-4.6-7.3-9.8-14.5-14.8-21.8
		s-4.5-14.5,0.4-21.4c1.3-1.8,2.3-3.6,3-5.4c0.4-0.9,0.2-2.5-0.5-3c-0.5-0.7-2.3-0.9-3-0.5c-2.7,1.3-5.4,2.7-7.5,4.8
		c-12.3,11.8-14.1,21.3-7.1,35C109.4,59.1,112.4,63.4,115.1,67.9z"/>
	<path class="st0" d="M85.8,75.9c4.6,7.1,7.5,14.3,0.4,21.6c-0.2,0.2-0.4,0.7-0.5,1.1c-0.9,2.3,0.7,4.5,3.9,4.5
		c1.3-0.5,3-1.3,4.8-2.1c11.3-6.4,15.2-19.5,9.1-31.1c-2.7-5-6.1-9.5-9.1-14.3c-3.2-5-6.6-10-9.7-15.2c-2.1-3.8-2-7.9-0.2-11.6
		c1.1-2.5,2.7-4.8,3.9-7.1c1.3-2.1,3.9-4.6,1.3-6.8c-1.3-0.9-5.2,0-6.8,1.4C67.2,28.5,64.2,40.2,72.6,55.5
		C76.7,62.7,81.3,69.3,85.8,75.9z"/>
	<path class="st0" d="M157.3,78.6c3.9,6.3,4.6,12.3-0.5,18.4c-0.9,1.1-1.3,3.8-0.7,4.6c0.7,0.9,3.2,1.3,4.6,0.9
		c8-2.3,15.2-12.2,15.5-20.7c0.2-7.1-3-12.9-6.8-18.4c-4.1-6.3-8.6-12.3-12.9-18.8c-4.6-7-4.3-13.9,0.4-20.7
		c1.3-1.8,2.5-3.8,3.4-5.7c0.9-2.1,0-3.9-2.5-4.3c-1.3,0.5-2.5,0.7-3.6,1.6c-13.8,10-21.4,22.5-12.3,39.1
		C146.6,62.9,152.3,70.5,157.3,78.6z"/>
	<path class="st0" d="M154.1,165.1c-6.1,1.3-11.6,4.6-17.9,7.1c-6.6-5.4-7.9-6.6,0-15.9c2.1-2.5,4.8-4.5,7.1-6.8
		c6.3-6.3,5.2-15.2-2.3-19.5c-8.4-4.8-17.2-5-25.9-0.9c-7,3.2-10.4,10.4-9.8,18.1c0.5,7.9,3.6,14.7,8.6,20.9c-1.3,1.1-2.5,1.8-3.2,3
		c-2.5,3.9-5.5,3.2-8.6,1.3c-2-1.3-3.9-2.7-5.5-4.3c-2.3-2.1-4.3-4.6-6.4-7c-5-5-12.5-4.8-17.5,0.4c-3.8,3.9-5.2,8.9-5.5,13.9
		c-1.1,15.9,8.9,28.1,26.1,23.4c5.4-1.4,10.4-4.5,16.3-7c0.5,0.5,1.3,2,2.7,2.7c3.2,2,2.9,4.6,1.6,7.3c-0.7,1.4-1.8,3-2.9,4.1
		c-2.7,3-5.7,5.7-8.6,8.6c-5.9,5.9-5.2,14.8,2,19.1c8,4.8,16.8,5.5,25.6,1.8c7.9-3.4,11.8-11.4,10.9-19.8
		c-0.9-7.3-3.9-13.8-8.4-19.5c6.4-7.7,9.5-7.9,16.6-1.1c2.5,2.3,4.5,5,7,7.5c5.7,5.7,14.3,5.2,18.6-1.6c2.1-3.6,3.9-7.9,4.3-12
		C179.8,175.6,171.9,161.5,154.1,165.1z M122.6,189.7c-3.9,0-7.5-3.4-7.5-7.5c0-3.9,3.9-7.9,7.9-7.5c3.9,0.2,7.3,3.9,7.1,7.9
		C130.1,186.4,126.6,189.7,122.6,189.7z"/>
</g>
</svg>
